M48
; DRILL file {KiCad 9.0.6} date 2025-11-21T10:46:34+0100
; FORMAT={-:-/ absolute / inch / decimal}
; #@! TF.CreationDate,2025-11-21T10:46:34+01:00
; #@! TF.GenerationSoftware,Kicad,Pcbnew,9.0.6
; #@! TF.FileFunction,Plated,1,2,PTH
FMAT,2
INCH
; #@! TA.AperFunction,Plated,PTH,ComponentDrill
T1C0.0315
; #@! TA.AperFunction,Plated,PTH,ComponentDrill
T2C0.0354
; #@! TA.AperFunction,Plated,PTH,ComponentDrill
T3C0.0394
%
G90
G05
T1
X10.0807Y-1.4089
X10.0807Y-1.5089
X10.0815Y-1.6185
X10.0815Y-1.7185
T2
X10.2437Y-1.3075
X10.2437Y-1.4075
X10.2437Y-1.6118
X10.2437Y-1.7118
T3
X1.5334Y-1.2917
X1.5334Y-1.3917
X1.5334Y-1.4917
X1.5334Y-1.5917
X1.5334Y-1.6917
X1.6334Y-1.2917
X1.6334Y-1.3917
X1.6334Y-1.4917
X1.6334Y-1.5917
X1.6334Y-1.6917
X2.4485Y-1.2917
X2.4485Y-1.3917
X2.4485Y-1.4917
X2.4485Y-1.5917
X2.4485Y-1.6917
X2.5485Y-1.2917
X2.5485Y-1.3917
X2.5485Y-1.4917
X2.5485Y-1.5917
X2.5485Y-1.6917
X3.3636Y-1.2917
X3.3636Y-1.3917
X3.3636Y-1.4917
X3.3636Y-1.5917
X3.3636Y-1.6917
X3.4636Y-1.2917
X3.4636Y-1.3917
X3.4636Y-1.4917
X3.4636Y-1.5917
X3.4636Y-1.6917
X4.2787Y-1.2917
X4.2787Y-1.3917
X4.2787Y-1.4917
X4.2787Y-1.5917
X4.2787Y-1.6917
X4.3787Y-1.2917
X4.3787Y-1.3917
X4.3787Y-1.4917
X4.3787Y-1.5917
X4.3787Y-1.6917
X5.1938Y-1.2917
X5.1938Y-1.3917
X5.1938Y-1.4917
X5.1938Y-1.5917
X5.1938Y-1.6917
X5.2938Y-1.2917
X5.2938Y-1.3917
X5.2938Y-1.4917
X5.2938Y-1.5917
X5.2938Y-1.6917
X6.1089Y-1.2917
X6.1089Y-1.3917
X6.1089Y-1.4917
X6.1089Y-1.5917
X6.1089Y-1.6917
X6.2089Y-1.2917
X6.2089Y-1.3917
X6.2089Y-1.4917
X6.2089Y-1.5917
X6.2089Y-1.6917
X7.024Y-1.2917
X7.024Y-1.3917
X7.024Y-1.4917
X7.024Y-1.5917
X7.024Y-1.6917
X7.124Y-1.2917
X7.124Y-1.3917
X7.124Y-1.4917
X7.124Y-1.5917
X7.124Y-1.6917
X7.9391Y-1.2917
X7.9391Y-1.3917
X7.9391Y-1.4917
X7.9391Y-1.5917
X7.9391Y-1.6917
X8.0391Y-1.2917
X8.0391Y-1.3917
X8.0391Y-1.4917
X8.0391Y-1.5917
X8.0391Y-1.6917
X8.8542Y-1.2917
X8.8542Y-1.3917
X8.8542Y-1.4917
X8.8542Y-1.5917
X8.8542Y-1.6917
X8.9542Y-1.2917
X8.9542Y-1.3917
X8.9542Y-1.4917
X8.9542Y-1.5917
X8.9542Y-1.6917
X9.7693Y-1.2917
X9.7693Y-1.3917
X9.7693Y-1.4917
X9.7693Y-1.5917
X9.7693Y-1.6917
X9.8693Y-1.2917
X9.8693Y-1.3917
X9.8693Y-1.4917
X9.8693Y-1.5917
X9.8693Y-1.6917
M30
